<svg width="32" height="32" viewBox="0 0 32 32" fill="none" xmlns="http://www.w3.org/2000/svg">
  <circle cx="16" cy="16" r="14" fill="#4ECDC4" fill-opacity="0.1" stroke="#4ECDC4" stroke-width="1.5"/>
  <path d="M16 8V24" stroke="#4ECDC4" stroke-width="1.5" stroke-linecap="round"/>
  <path d="M16 16C13.7909 16 12 14.2091 12 12C12 9.79086 13.7909 8 16 8C18.2091 8 20 9.79086 20 12C20 14.2091 18.2091 16 16 16Z" fill="#4ECDC4" fill-opacity="0.3" stroke="#4ECDC4" stroke-width="1.5"/>
  <path d="M16 24C13.7909 24 12 22.2091 12 20C12 17.7909 13.7909 16 16 16C18.2091 16 20 17.7909 20 20C20 22.2091 18.2091 24 16 24Z" fill="#4ECDC4" fill-opacity="0.3" stroke="#4ECDC4" stroke-width="1.5"/>
</svg> 