<svg width="32" height="32" viewBox="0 0 32 32" fill="none" xmlns="http://www.w3.org/2000/svg">
  <circle cx="16" cy="16" r="14" fill="#6C5B7B" fill-opacity="0.1" stroke="#6C5B7B" stroke-width="1.5"/>
  <path d="M16 8C17.6569 8 19 9.34315 19 11C19 12.6569 17.6569 14 16 14C14.3431 14 13 12.6569 13 11C13 9.34315 14.3431 8 16 8Z" fill="#6C5B7B"/>
  <path d="M13 17C13 16.4477 13.4477 16 14 16H18C18.5523 16 19 16.4477 19 17V23C19 23.5523 18.5523 24 18 24H14C13.4477 24 13 23.5523 13 23V17Z" fill="#6C5B7B"/>
  <path d="M21 20H19M11 20H13" stroke="#6C5B7B" stroke-width="1.5" stroke-linecap="round"/>
</svg> 